<?xml version="1.0" encoding="utf-8"?>
<svg width="40px" height="40px" viewBox="0 0 40 40" version="1.1" xmlns:xlink="http://www.w3.org/1999/xlink" xmlns="http://www.w3.org/2000/svg">
  <defs>
    <path d="M40 0L40 0L40 40L0 40L0 0L40 0Z" id="path_1" />
    <clipPath id="clip_1">
      <use xlink:href="#path_1" clip-rule="evenodd" fill-rule="evenodd" />
    </clipPath>
  </defs>
  <g id="Cadre" clip-path="url(#clip_1)">
    <path d="M40 0L40 0L40 40L0 40L0 0L40 0Z" id="Cadre" fill="none" stroke="none" />
    <path d="M26.9833 3.33333L13.0167 3.33333C6.95 3.33333 3.33333 6.95 3.33333 13.0167L3.33333 26.9667C3.33333 33.05 6.95 36.6667 13.0167 36.6667L26.9667 36.6667C33.0333 36.6667 36.65 33.05 36.65 26.9833L36.65 13.0167C36.6667 6.95 33.05 3.33333 26.9833 3.33333L26.9833 3.33333ZM28.3333 28.75L11.6667 28.75C10.9833 28.75 10.4167 28.1833 10.4167 27.5C10.4167 26.8167 10.9833 26.25 11.6667 26.25L28.3333 26.25C29.0167 26.25 29.5833 26.8167 29.5833 27.5C29.5833 28.1833 29.0167 28.75 28.3333 28.75L28.3333 28.75ZM28.3333 21.25L11.6667 21.25C10.9833 21.25 10.4167 20.6833 10.4167 20C10.4167 19.3167 10.9833 18.75 11.6667 18.75L28.3333 18.75C29.0167 18.75 29.5833 19.3167 29.5833 20C29.5833 20.6833 29.0167 21.25 28.3333 21.25L28.3333 21.25ZM28.3333 13.75L11.6667 13.75C10.9833 13.75 10.4167 13.1833 10.4167 12.5C10.4167 11.8167 10.9833 11.25 11.6667 11.25L28.3333 11.25C29.0167 11.25 29.5833 11.8167 29.5833 12.5C29.5833 13.1833 29.0167 13.75 28.3333 13.75L28.3333 13.75Z" id="Forme" fill="#292D32" fill-rule="evenodd" stroke="none" />
  </g>
</svg>